<?xml version="1.0" encoding="UTF-8" standalone="no"?>
<!-- Created with Inkscape (http://www.inkscape.org/) -->

<svg
   width="210mm"
   height="297mm"
   viewBox="0 0 210 297"
   version="1.1"
   id="svg1232"
   inkscape:version="1.2 (1:1.2.1+202207142221+cd75a1ee6d)"
   sodipodi:docname="LOGO.SVG"
   xmlns:inkscape="http://www.inkscape.org/namespaces/inkscape"
   xmlns:sodipodi="http://sodipodi.sourceforge.net/DTD/sodipodi-0.dtd"
   xmlns:xlink="http://www.w3.org/1999/xlink"
   xmlns="http://www.w3.org/2000/svg"
   xmlns:svg="http://www.w3.org/2000/svg">
  <sodipodi:namedview
     id="namedview1234"
     pagecolor="#505050"
     bordercolor="#eeeeee"
     borderopacity="1"
     inkscape:showpageshadow="0"
     inkscape:pageopacity="0"
     inkscape:pagecheckerboard="0"
     inkscape:deskcolor="#505050"
     inkscape:document-units="mm"
     showgrid="false"
     inkscape:zoom="0.3732674"
     inkscape:cx="468.8328"
     inkscape:cy="317.46678"
     inkscape:window-width="1920"
     inkscape:window-height="1015"
     inkscape:window-x="0"
     inkscape:window-y="0"
     inkscape:window-maximized="1"
     inkscape:current-layer="layer1"
     showguides="false" />
  <defs
     id="defs1229">
    <linearGradient
       inkscape:collect="always"
       id="linearGradient1064">
      <stop
         style="stop-color:#b3b3fc;stop-opacity:1;"
         offset="0"
         id="stop1060" />
      <stop
         style="stop-color:#3e3ec7;stop-opacity:1;"
         offset="1"
         id="stop1062" />
    </linearGradient>
    <linearGradient
       inkscape:collect="always"
       id="linearGradient1913">
      <stop
         style="stop-color:#f222ac;stop-opacity:1;"
         offset="0"
         id="stop1909" />
      <stop
         style="stop-color:#3e3ec7;stop-opacity:1;"
         offset="1"
         id="stop1911" />
    </linearGradient>
    <linearGradient
       inkscape:collect="always"
       id="linearGradient1487">
      <stop
         style="stop-color:#ff0bbe;stop-opacity:1;"
         offset="0"
         id="stop1483" />
      <stop
         style="stop-color:#f1dde9;stop-opacity:1;"
         offset="1"
         id="stop1485" />
    </linearGradient>
    <linearGradient
       inkscape:collect="always"
       id="linearGradient1437">
      <stop
         style="stop-color:#f429bf;stop-opacity:1;"
         offset="0"
         id="stop1433" />
      <stop
         style="stop-color:#f1dde9;stop-opacity:1;"
         offset="1"
         id="stop1435" />
    </linearGradient>
    <linearGradient
       inkscape:collect="always"
       id="linearGradient1365">
      <stop
         style="stop-color:#b3b3fc;stop-opacity:1;"
         offset="0"
         id="stop1361" />
      <stop
         style="stop-color:#3e3ec7;stop-opacity:0.95783126;"
         offset="1"
         id="stop1363" />
    </linearGradient>
    <linearGradient
       inkscape:collect="always"
       xlink:href="#linearGradient1365"
       id="linearGradient1367"
       x1="49.409546"
       y1="98.761253"
       x2="50.430149"
       y2="100.36475"
       gradientUnits="userSpaceOnUse" />
    <linearGradient
       inkscape:collect="always"
       xlink:href="#linearGradient1437"
       id="linearGradient1439"
       x1="50.927689"
       y1="98.675072"
       x2="51.951622"
       y2="100.61156"
       gradientUnits="userSpaceOnUse" />
    <linearGradient
       inkscape:collect="always"
       xlink:href="#linearGradient1437"
       id="linearGradient1944"
       gradientUnits="userSpaceOnUse"
       x1="50.927689"
       y1="98.675072"
       x2="52.857975"
       y2="100.58128" />
    <linearGradient
       inkscape:collect="always"
       xlink:href="#linearGradient1487"
       id="linearGradient1411"
       x1="-913.70227"
       y1="73.474785"
       x2="-797.99023"
       y2="146.81641"
       gradientUnits="userSpaceOnUse"
       gradientTransform="translate(-821.21928,-245.73755)" />
    <linearGradient
       inkscape:collect="always"
       xlink:href="#linearGradient1365"
       id="linearGradient1481"
       gradientUnits="userSpaceOnUse"
       x1="-830.27875"
       y1="51.220512"
       x2="-719.24451"
       y2="151.78552"
       gradientTransform="translate(-821.21928,-245.73755)" />
    <linearGradient
       inkscape:collect="always"
       xlink:href="#linearGradient1437"
       id="linearGradient1498"
       x1="-561.0921"
       y1="-289.6217"
       x2="-425.69836"
       y2="-177.67105"
       gradientUnits="userSpaceOnUse"
       gradientTransform="translate(-821.21928,-245.73755)" />
    <linearGradient
       inkscape:collect="always"
       xlink:href="#linearGradient1913"
       id="linearGradient1897"
       x1="-101.57939"
       y1="242.60632"
       x2="-103.14168"
       y2="229.27249"
       gradientUnits="userSpaceOnUse" />
    <linearGradient
       inkscape:collect="always"
       xlink:href="#linearGradient1064"
       id="linearGradient1905"
       gradientUnits="userSpaceOnUse"
       x1="-144.9521"
       y1="101.10156"
       x2="-65.401939"
       y2="191.98766" />
    <linearGradient
       inkscape:collect="always"
       xlink:href="#linearGradient1487"
       id="linearGradient1907"
       gradientUnits="userSpaceOnUse"
       x1="-165.77756"
       y1="152.53571"
       x2="-90.360489"
       y2="203.46936" />
  </defs>
  <g
     inkscape:label="Layer 1"
     inkscape:groupmode="layer"
     id="layer1">
    <g
       id="g2117"
       transform="matrix(0.81781777,0,0,0.81781777,-875.39447,-247.01191)"
       inkscape:export-filename="logo.png"
       inkscape:export-xdpi="87.017975"
       inkscape:export-ydpi="87.017975">
      <g
         id="g1967"
         inkscape:export-filename="logo.png"
         inkscape:export-xdpi="87.017975"
         inkscape:export-ydpi="87.017975"
         transform="translate(-200.17165)">
        <g
           aria-label="H"
           id="text1073"
           style="font-style:oblique;font-size:3.175px;line-height:1.2;font-family:'Bitstream Vera Sans Mono';-inkscape-font-specification:'Bitstream Vera Sans Mono Oblique';font-variant-ligatures:none;letter-spacing:0.529167px;word-spacing:0px;fill:#00ffff;stroke-width:0.264583"
           transform="matrix(71.368701,0,0,71.368701,-3474.4833,-6965.8188)">
          <path
             d="m 49.708375,99.439558 h 0.857312 l 0.182935,-0.80822 h 0.314709 l -0.515693,2.309592 h -0.313159 l 0.280048,-1.237823 h -0.860412 z"
             id="path1075"
             sodipodi:nodetypes="ccccccccc"
             style="fill:url(#linearGradient1367);fill-opacity:1" />
        </g>
        <g
           aria-label="F"
           id="text1069"
           style="font-size:3.175px;line-height:1.2;font-family:'Bitstream Vera Sans Mono';-inkscape-font-specification:'Bitstream Vera Sans Mono';font-variant-ligatures:none;letter-spacing:0.529167px;word-spacing:0px;fill:url(#linearGradient1439);fill-opacity:1;stroke-width:0.264583"
           transform="matrix(71.368701,0,0,71.368701,-3602.5647,-6962.3094)">
          <path
             d="m 50.862084,98.57648 h 1.362708 v 0.26355 h -1.047998 v 0.682129 h 0.950329 v 0.26355 h -0.950329 v 1.105361 h -0.31471 z"
             id="path1174"
             style="fill:url(#linearGradient1944);fill-opacity:1" />
        </g>
      </g>
      <rect
         style="opacity:0.5;fill:none;stroke:none;stroke-width:0.250948;paint-order:markers stroke fill"
         id="rect2101"
         width="165.64407"
         height="165.64407"
         x="-184.37546"
         y="72.763054" />
    </g>
    <path
       style="opacity:0.5;fill:#000000;stroke-width:0.264583;paint-order:markers stroke fill"
       d="m -667.91959,42.33996 a 105.83334,105.83334 0 0 1 -5.51078,0.52658 105.83334,105.83334 0 0 0 5.51078,-0.52658 z"
       id="path1297" />
    <rect
       style="opacity:0.5;fill:#000000;stroke-width:0.264583;paint-order:markers stroke fill"
       id="rect1033"
       width="26.458334"
       height="380.13925"
       x="-1090.7474"
       y="-194.65747" />
    <rect
       style="opacity:0.5;fill:#000000;stroke-width:0.264583;paint-order:markers stroke fill"
       id="rect1037"
       width="26.458334"
       height="380.13925"
       x="426.95862"
       y="784.83484"
       transform="rotate(113.89796)" />
    <rect
       style="opacity:0.5;fill:#000000;stroke-width:0.264583;paint-order:markers stroke fill"
       id="rect1039"
       width="26.458334"
       height="380.13925"
       x="-1133.1981"
       y="-257.90332" />
    <rect
       style="opacity:0.5;fill:#000000;stroke-width:0.264583;paint-order:markers stroke fill"
       id="rect1060"
       width="26.458334"
       height="380.13925"
       x="569.7182"
       y="652.03662"
       transform="rotate(128.19283)"
       inkscape:transform-center-x="25.655285"
       inkscape:transform-center-y="4.5140904" />
    <rect
       style="opacity:0.5;fill:#000000;stroke-width:0.264583;paint-order:markers stroke fill"
       id="rect1062"
       width="26.458334"
       height="380.13925"
       x="-430.72794"
       y="449.10504"
       transform="rotate(74.896566)" />
    <path
       style="opacity:0.5;fill:url(#linearGradient1481);fill-opacity:1;stroke-width:0.264583;paint-order:markers stroke fill"
       d="m -1624.9234,-250.94753 -3.6261,26.25628 -14.4653,104.74089 -3.9284,28.44426 -10.5369,76.29663 -3.6261,26.25628 a 132.29167,132.29167 0 0 0 18.0914,1.29449 132.29167,132.29167 0 0 0 8.4817,-0.30799 l 3.7238,-26.96166 11.5998,-83.9928 81.9836,-21.98316 c -0,-0.0421 0,-0.0898 0.01,-0.14056 a 105.83334,105.83334 0 0 1 0.035,1.09451 105.83334,105.83334 0 0 1 -22.5604,65.1614 l 20.8401,16.39538 a 132.29167,132.29167 0 0 0 28.1786,-81.55678 132.29167,132.29167 0 0 0 -50.6832,-104.06652 l -15.5815,21.56716 a 105.83334,105.83334 0 0 1 36.1038,55.13359 l -74.395,19.93367 12.4592,-90.21414 3.73,-27.01075 a 132.29167,132.29167 0 0 0 -25.8335,-6.34018 z"
       id="path1479" />
    <path
       style="opacity:0.5;fill:url(#linearGradient1411);fill-opacity:1;stroke-width:0.264583;paint-order:markers stroke fill"
       d="m -1651.498,-251.92473 a 132.29167,132.29167 0 0 0 -123.2225,120.19369 l -0.058,0.0155 0.039,0.14728 a 132.29167,132.29167 0 0 0 -0.5674,11.61789 132.29167,132.29167 0 0 0 38.6726,93.29094 l 15.7567,-21.809 a 105.83334,105.83334 0 0 1 -27.6004,-62.9021 l 80.5491,-21.58318 3.9284,-28.44478 -83.0301,22.24774 a 105.83334,105.83334 0 0 1 91.8125,-85.83817 z"
       id="path1302" />
    <path
       style="opacity:0.5;fill:#000000;stroke-width:0.264583;paint-order:markers stroke fill"
       d="m -1272.7512,-613.28269 -3.6262,26.25628 -14.4652,104.74089 -3.9285,28.44426 -10.5368,76.29663 -3.6261,26.25628 a 132.29167,132.29167 0 0 0 18.0914,1.2945 132.29167,132.29167 0 0 0 8.4816,-0.308 l 3.7238,-26.96166 11.6019,-84.00934 3.9284,-28.44477 12.4592,-90.21414 3.73,-27.01075 a 132.29167,132.29167 0 0 0 -25.8335,-6.34018 z"
       id="path1314" />
    <path
       id="path1316"
       style="opacity:0.5;fill:#000000;stroke-width:0.474342;paint-order:markers stroke fill"
       d="m -1209.2342,-586.35204 -15.5814,21.56716 a 105.83334,105.83334 0 0 1 36.1037,55.13359 l -82.8838,22.20846 -8.1975,29.60698 94.7395,-25.40362 c -0,-0.0421 0,-0.0899 0.01,-0.14056 a 105.83334,105.83334 0 0 1 0.035,1.09451 105.83334,105.83334 0 0 1 -22.5604,65.1614 l 20.8401,16.39538 a 132.29167,132.29167 0 0 0 28.1784,-81.55678 132.29167,132.29167 0 0 0 -50.6832,-104.06652 z m 20.6742,77.24748 a 105.83334,105.83334 0 0 1 1.1808,4.98471 c -0.3713,-1.66677 -0.7641,-3.32859 -1.1808,-4.98471 z" />
    <path
       style="opacity:0.5;fill:url(#linearGradient1498);fill-opacity:1;stroke-width:0.474342;paint-order:markers stroke fill"
       d="m -1299.3258,-614.25989 a 132.29167,132.29167 0 0 0 -123.2225,120.19369 l -0.058,0.0155 0.039,0.14727 a 132.29167,132.29167 0 0 0 -0.5674,11.6179 132.29167,132.29167 0 0 0 38.6726,93.29095 l 15.7566,-21.809 a 105.83334,105.83334 0 0 1 -27.6003,-62.9021 l 80.5491,-21.58318 3.9284,-28.44478 -83.0301,22.24774 a 105.83334,105.83334 0 0 1 91.8125,-85.83817 z"
       id="path1318" />
    <path
       style="opacity:0.5;fill:#000000;stroke-width:0.264583;paint-order:markers stroke fill"
       d="m -1625.2605,-374.41637 a 105.83334,105.83334 0 0 1 -5.5108,0.52658 105.83334,105.83334 0 0 0 5.5108,-0.52658 z"
       id="path1586" />
    <path
       style="opacity:0.5;fill:#000000;stroke-width:0.264583;paint-order:markers stroke fill"
       d="m -1535.312,-506.80933 -46.6742,12.50622 -3.9284,28.44477 54.2458,-14.53503 a 105.83334,105.83334 0 0 0 -0.095,-2.01693 105.83334,105.83334 0 0 0 -2.4241,-19.50268 105.83334,105.83334 0 0 0 -1.1245,-4.89635 z"
       id="path1588" />
    <g
       id="g1596"
       transform="translate(-1778.5602,-662.49388)">
      <path
         style="opacity:0.5;fill:#000000;stroke-width:0.264583;paint-order:markers stroke fill"
         d="m 159.1939,52.057288 -3.62613,26.256278 -14.46527,104.740894 -3.92844,28.44426 -10.53683,76.29663 -3.62613,26.25628 a 132.29167,132.29167 0 0 0 18.0914,1.2945 132.29167,132.29167 0 0 0 8.48165,-0.308 l 3.7238,-26.96166 11.60188,-84.00934 3.92844,-28.44477 12.45919,-90.214137 3.73001,-27.010754 A 132.29167,132.29167 0 0 0 159.1939,52.057288 Z"
         id="path1590" />
      <path
         id="path1592"
         style="opacity:0.5;fill:#000000;stroke-width:0.474342;paint-order:markers stroke fill"
         d="M 222.71095,78.987944 207.12948,100.5551 a 105.83334,105.83334 0 0 1 36.10374,55.13359 l -82.88383,22.20846 -8.19744,29.60698 94.73944,-25.40362 c -0.002,-0.0421 0.003,-0.0899 0.01,-0.14056 a 105.83334,105.83334 0 0 1 0.0346,1.09451 105.83334,105.83334 0 0 1 -22.56038,65.1614 l 20.84007,16.39538 A 132.29167,132.29167 0 0 0 273.39417,183.05446 132.29167,132.29167 0 0 0 222.71095,78.987944 Z m 20.67419,77.247476 a 105.83334,105.83334 0 0 1 1.18081,4.98471 c -0.37133,-1.66677 -0.76417,-3.32859 -1.18081,-4.98471 z" />
      <path
         style="opacity:0.5;fill:#000000;stroke-width:0.474342;paint-order:markers stroke fill"
         d="M 132.6193,51.080086 A 132.29167,132.29167 0 0 0 9.3968424,171.27378 l -0.057878,0.0155 0.039274,0.14727 a 132.29167,132.29167 0 0 0 -0.5674072,11.6179 132.29167,132.29167 0 0 0 38.6725748,93.29095 l 15.756662,-21.809 A 105.83334,105.83334 0 0 1 35.639685,191.6343 l 80.549085,-21.58318 3.92845,-28.44478 -83.030078,22.24774 A 105.83334,105.83334 0 0 1 128.89963,78.01591 Z"
         id="path1594" />
    </g>
    <path
       id="path1807"
       style="opacity:0.5;fill:#000000;stroke-width:0.474342;paint-order:markers stroke fill"
       d="m -243.00119,-298.44238 a 132.29167,132.29167 0 0 0 -123.22245,120.1937 l -0.0579,0.0155 0.0393,0.14728 a 132.29167,132.29167 0 0 0 -0.0258,0.36276 h -0.03 a 132.29167,132.27859 0 0 0 -0.51159,11.25513 132.29167,132.29167 0 0 0 0.28525,8.33903 132.29167,132.27859 0 0 0 0.40308,4.38268 132.29167,132.29167 0 0 0 0.39687,3.85971 132.29167,132.27859 0 0 0 0.78962,5.15731 132.29167,132.29167 0 0 0 0.50901,2.95434 132.29167,132.27859 0 0 0 1.20923,5.61051 132.29167,132.29167 0 0 0 0.55294,2.26704 132.29167,132.27859 0 0 0 1.68827,6.04305 132.29167,132.29167 0 0 0 0.47025,1.48208 132.29167,132.27859 0 0 0 2.28927,6.6244 132.29167,132.29167 0 0 0 0.0765,0.1943 132.29167,132.27859 0 0 0 123.62139,85.364299 132.29167,132.27859 0 0 0 132.29167,-132.278749 132.29167,132.27859 0 0 0 -0.22479,-7.19077 132.29167,132.29167 0 0 0 -0.12454,-1.93012 132.29167,132.27859 0 0 0 -0.13798,-2.13424 h -0.0594 a 132.29167,132.29167 0 0 0 -28.23238,-71.02977 l -28.71143,7.69307 a 105.83334,105.83334 0 0 1 27.3296,47.22606 l -74.39494,19.93367 12.45919,-90.21413 3.73,-27.01076 a 132.29167,132.29167 0 0 0 -25.83356,-6.34018 l -3.62614,26.25628 -14.46527,104.74089 -3.92844,28.44426 -8.38812,60.739445 27.73578,-7.431588 8.38605,-60.722907 81.98363,-21.98316 c -0.002,-0.0421 0.003,-0.0899 0.01,-0.14055 a 105.83334,105.83334 0 0 1 0.0346,1.0945 105.83334,105.83334 0 0 1 -21.10001,63.17961 l 0.19431,-0.0522 a 105.83334,105.82285 0 0 1 -84.92764,42.695589 105.83334,105.82285 0 0 1 -77.92909,-34.249072 l 0.0667,-0.09198 a 105.83334,105.83334 0 0 1 -27.56317,-62.583773 105.83334,105.82285 0 0 1 -0.0362,-0.31885 l 80.54806,-21.58266 3.92844,-28.44477 -83.03007,22.24773 a 105.83334,105.83334 0 0 1 91.81248,-85.83817 z" />
    <rect
       style="opacity:0.5;fill:#000000;stroke-width:0.264583;paint-order:markers stroke fill"
       id="rect1809"
       width="26.458334"
       height="380.13925"
       x="-430.72794"
       y="449.10504"
       transform="rotate(74.896566)" />
    <rect
       style="opacity:0.5;fill:#000000;stroke-width:0.264583;paint-order:markers stroke fill"
       id="rect1811"
       width="26.458334"
       height="380.13925"
       x="-546.82959"
       y="507.39499"
       transform="rotate(74.896566)" />
    <path
       id="path1815"
       style="opacity:0.5;fill:#000000;stroke-width:0.474342;paint-order:markers stroke fill"
       d="m -438.07517,-625.33982 a 132.29167,132.29167 0 0 0 -123.22244,120.1937 l -0.0579,0.0155 0.0393,0.14728 a 132.29167,132.29167 0 0 0 -0.0258,0.36277 h -0.03 a 132.29167,132.27859 0 0 0 -0.51158,11.25512 132.29167,132.29167 0 0 0 0.28524,8.33903 132.29167,132.27859 0 0 0 0.40309,4.38268 132.29167,132.29167 0 0 0 0.39687,3.85971 132.29167,132.27859 0 0 0 0.78962,5.15731 132.29167,132.29167 0 0 0 0.50901,2.95434 132.29167,132.27859 0 0 0 1.20922,5.61051 132.29167,132.29167 0 0 0 0.55295,2.26705 132.29167,132.27859 0 0 0 1.68826,6.04304 132.29167,132.29167 0 0 0 0.47025,1.48208 132.29167,132.27859 0 0 0 2.28927,6.6244 132.29167,132.29167 0 0 0 0.0765,0.1943 132.29167,132.27859 0 0 0 123.62139,85.3643 132.29167,132.27859 0 0 0 132.29167,-132.27875 132.29167,132.27859 0 0 0 -0.22479,-7.19077 132.29167,132.29167 0 0 0 -0.12454,-1.93012 132.29167,132.27859 0 0 0 -0.13798,-2.13423 h -0.0594 a 132.29167,132.29167 0 0 0 -28.23237,-71.02978 l -28.71144,7.69307 a 105.83334,105.83334 0 0 1 27.3296,47.22606 l -74.39494,19.93367 12.4592,-90.21413 3.73,-27.01076 a 132.29167,132.29167 0 0 0 -25.83357,-6.34018 l -3.62613,26.25628 -14.46528,104.74089 -3.92844,28.44426 -8.38811,60.73945 27.73577,-7.43159 8.38605,-60.72291 81.98364,-21.98315 c -0.002,-0.0421 0.003,-0.0899 0.01,-0.14056 a 105.83334,105.83334 0 0 1 0.0346,1.0945 105.83334,105.83334 0 0 1 -21.10001,63.17961 l 0.1943,-0.0522 a 105.83334,105.82285 0 0 1 -84.92764,42.69558 105.83334,105.82285 0 0 1 -77.92908,-34.24907 l 0.0666,-0.092 a 105.83334,105.83334 0 0 1 -27.56317,-62.58378 105.83334,105.82285 0 0 1 -0.0362,-0.31884 l 80.54805,-21.58266 3.92845,-28.44478 -83.03007,22.24774 a 105.83334,105.83334 0 0 1 91.81248,-85.83818 z" />
    <rect
       style="opacity:0.5;fill:#000000;stroke-width:0.264583;paint-order:markers stroke fill"
       id="rect1817"
       width="26.458334"
       height="380.13925"
       x="-512.54938"
       y="123.70396"
       transform="rotate(74.896566)" />
    <g
       id="g1882"
       transform="translate(132.29173,-583.26362)">
      <g
         id="g1880"
         transform="translate(812.17932,211.03081)">
        <path
           id="path1878"
           style="opacity:0.5;fill:#000000;stroke-width:0.474342;paint-order:markers stroke fill"
           d="m -688.59983,-194.65737 a 132.29167,132.29167 0 0 0 -123.22245,120.193698 l -0.0579,0.0155 0.0393,0.147278 a 132.29167,132.29167 0 0 0 -0.0258,0.362768 h -0.03 a 132.29167,132.27859 0 0 0 -0.51159,11.255127 132.29167,132.29167 0 0 0 0.28525,8.339026 132.29167,132.27859 0 0 0 0.40308,4.382678 132.29167,132.29167 0 0 0 0.39687,3.859713 132.29167,132.27859 0 0 0 0.78962,5.157308 132.29167,132.29167 0 0 0 0.50901,2.954342 132.29167,132.27859 0 0 0 1.20923,5.61051 132.29167,132.29167 0 0 0 0.55294,2.267045 132.29167,132.27859 0 0 0 1.68827,6.043042 132.29167,132.29167 0 0 0 0.47025,1.48208 132.29167,132.27859 0 0 0 2.28927,6.624402 132.29167,132.29167 0 0 0 0.0765,0.194303 132.29167,132.27859 0 0 0 42.72711,57.602169 l 34.771,-9.383923 A 105.83334,105.82285 0 0 1 -758.04572,8.8909302 l 0.0667,-0.091984 a 105.83334,105.83334 0 0 1 -27.56317,-62.5837772 105.83334,105.82285 0 0 1 -0.0362,-0.318843 l 80.54806,-21.582662 3.92844,-28.444774 -83.03007,22.247736 a 105.83334,105.83334 0 0 1 91.81248,-85.838176 z m 26.57461,0.9772 -3.62614,26.25628 -14.46527,104.740894 -3.92844,28.444259 -7.93285,57.441455 27.74353,-7.487915 7.92303,-57.368591 81.98363,-21.983155 c -0.002,-0.0421 0.003,-0.0899 0.01,-0.140559 a 105.83334,105.83334 0 0 1 0.0346,1.094506 105.83334,105.83334 0 0 1 -18.25987,59.049626 l 35.06866,-9.464539 a 132.29167,132.27859 0 0 0 9.64954,-49.585087 132.29167,132.27859 0 0 0 -0.22479,-7.190775 132.29167,132.29167 0 0 0 -0.12454,-1.930115 132.29167,132.27859 0 0 0 -0.13798,-2.134237 h -0.0594 a 132.29167,132.29167 0 0 0 -28.23238,-71.029777 l -28.71143,7.69307 a 105.83334,105.83334 0 0 1 27.3296,47.226063 l -74.39494,19.933667 12.45919,-90.21413 3.73,-27.01076 a 132.29167,132.29167 0 0 0 -25.83356,-6.34018 z M -576.38446,19.410701 -728.3788,60.43197 a 132.29167,132.27859 0 0 0 48.26217,9.163782 132.29167,132.27859 0 0 0 103.73217,-50.185051 z" />
      </g>
    </g>
    <g
       id="g1136"
       inkscape:export-filename="logo.png"
       inkscape:export-xdpi="87.017975"
       inkscape:export-ydpi="87.017975">
      <g
         id="g1979"
         transform="translate(222.34195,-25.789234)">
        <path
           style="opacity:0.5;fill:url(#linearGradient1897);fill-opacity:1;stroke-width:0.242863;paint-order:markers stroke fill"
           d="m -64.231144,218.77105 -77.821066,21.00288 a 67.733301,67.726604 0 0 0 24.71022,4.69186 67.733301,67.726604 0 0 0 53.110846,-25.69474 z"
           id="path1903" />
        <path
           style="opacity:0.5;fill:url(#linearGradient1905);fill-opacity:1;stroke-width:0.242863;paint-order:markers stroke fill"
           d="m -108.07919,109.66858 -1.85658,13.44321 -7.40622,53.62731 -2.01136,14.56346 -4.06162,29.41001 14.20469,-3.83381 4.05658,-29.37271 41.975602,-11.25537 c -0.001,-0.0215 0.0015,-0.046 0.0051,-0.072 a 54.186643,54.186643 0 0 1 0.01772,0.56038 54.186643,54.186643 0 0 1 -9.349042,30.2334 l 17.955138,-4.84585 a 67.733301,67.726604 0 0 0 4.940562,-25.38755 67.733301,67.726604 0 0 0 -0.115093,-3.68167 67.733301,67.733301 0 0 0 -0.06376,-0.98822 67.733301,67.726604 0 0 0 -0.07065,-1.09273 h -0.03041 a 67.733301,67.733301 0 0 0 -14.454971,-36.36723 l -14.700246,3.93885 a 54.186643,54.186643 0 0 1 13.99275,24.17973 l -38.09019,10.20604 6.3791,-46.18961 1.90976,-13.82951 a 67.733301,67.733301 0 0 0 -13.22677,-3.24617 z"
           id="path1901" />
        <path
           style="opacity:0.5;fill:url(#linearGradient1907);fill-opacity:1;stroke-width:0.242863;paint-order:markers stroke fill"
           d="m -121.68538,109.16826 a 67.733301,67.733301 0 0 0 -63.08987,61.53914 l -0.0296,0.008 0.0201,0.0754 a 67.733301,67.733301 0 0 0 -0.0132,0.18574 h -0.0154 a 67.733301,67.726604 0 0 0 -0.26193,5.76262 67.733301,67.733301 0 0 0 0.14604,4.26958 67.733301,67.726604 0 0 0 0.20638,2.24393 67.733301,67.733301 0 0 0 0.2032,1.97617 67.733301,67.726604 0 0 0 0.40428,2.64054 67.733301,67.733301 0 0 0 0.26062,1.51262 67.733301,67.726604 0 0 0 0.61912,2.87258 67.733301,67.733301 0 0 0 0.28311,1.16073 67.733301,67.726604 0 0 0 0.86439,3.09404 67.733301,67.733301 0 0 0 0.24077,0.75882 67.733301,67.726604 0 0 0 1.17211,3.39169 67.733301,67.733301 0 0 0 0.0392,0.0995 67.733301,67.726604 0 0 0 21.87627,29.49229 l 17.80275,-4.80456 A 54.186643,54.181272 0 0 1 -157.24163,213.385 l 0.0342,-0.0471 a 54.186643,54.186643 0 0 1 -14.11234,-32.04288 54.186643,54.181272 0 0 1 -0.0185,-0.16325 l 41.24058,-11.05031 2.01136,-14.56372 -42.51137,11.39083 a 54.186643,54.186643 0 0 1 47.00797,-43.94912 z"
           id="path1158" />
      </g>
      <rect
         style="opacity:0.5;fill:none;stroke:none;stroke-width:0.264583;paint-order:markers stroke fill"
         id="rect1884"
         width="135.46666"
         height="135.46666"
         x="37.26667"
         y="83.294464" />
    </g>
  </g>
</svg>
